<svg width="1280" height="420" viewBox="0 0 1280 420" fill="none" xmlns="http://www.w3.org/2000/svg" role="img" aria-label="Notebook Clean Check cover">

  <defs>
    <linearGradient id="g" x1="0" x2="1" y1="0" y2="1">
      <stop offset="0" stop-color="#eab308" stop-opacity=".34"/>
      <stop offset=".54" stop-color="#1b2012" stop-opacity="0"/>
      <stop offset="1" stop-color="#65a30d" stop-opacity=".30"/>
    </linearGradient>
    <filter id="grain" x="-20%" y="-20%" width="140%" height="140%">
      <feTurbulence type="fractalNoise" baseFrequency=".85" numOctaves="2" seed="1" result="noise"/>
      <feColorMatrix type="saturate" values="0"/>
      <feComponentTransfer><feFuncA type="table" tableValues="0 .10"/></feComponentTransfer>
      <feBlend mode="soft-light" in2="SourceGraphic"/>
    </filter>
  </defs>
  <rect width="1280" height="420" rx="30" fill="#1b2012"/>
  <rect width="1280" height="420" rx="30" fill="url(#g)" filter="url(#grain)"/>

  <rect x="82" y="74" width="300" height="272" rx="30" fill="#eab308" opacity=".18"/>
  <path d="M132 142h168M132 202h108M132 262h202" stroke="#fefce8" stroke-width="15" stroke-linecap="round"/>
  <text x="446" y="184" fill="#fefce8" font-family="IBM Plex Sans, ui-sans-serif, system-ui" font-size="60" font-weight="850">Notebook Clean Check</text>
  <text x="450" y="242" fill="#d9f99d" font-family="IBM Plex Sans, ui-sans-serif, system-ui" font-size="23">Audit notebook files for outputs, hidden state, and...</text>
  <rect x="450" y="278" width="360" height="44" rx="22" fill="#65a30d" opacity=".18"/>
  <text x="470" y="307" fill="#fefce8" font-family="ui-monospace, SFMono-Regular, Menlo, monospace" font-size="16" font-weight="800">DATA QUALITY</text>
  <rect x="846" y="122" width="160" height="28" rx="8" fill="#eab308" opacity=".85"/>
  <text x="862" y="141" fill="#fefce8" font-family="ui-monospace, SFMono-Regular, Menlo, monospace" font-size="13">committed-output</text>
  <rect x="846" y="176" width="220" height="28" rx="8" fill="#65a30d" opacity=".85"/>
  <text x="862" y="195" fill="#fefce8" font-family="ui-monospace, SFMono-Regular, Menlo, monospace" font-size="13">execution-state</text>
  <rect x="846" y="230" width="264" height="28" rx="8" fill="#eab308" opacity=".85"/>
  <text x="862" y="249" fill="#fefce8" font-family="ui-monospace, SFMono-Regular, Menlo, monospace" font-size="13">local-path</text>
</svg>
